# xmcd
#
# Track frame offsets:
#	150
#	14892
#	31090
#	53320
#	71267
#	83965
#	103570
#	120204
#	132792
#	149972
#	167157
#	186077
#	201317
#	216435
#
# Disc length: 3096 seconds
#
# Revision: 0
# Processed by: cddbd v1.5.2PL0 Copyright (c) Steve Scherf et al.
# Submitted via: audiograbber 1.83.01
#
DISCID=c70c160e
DTITLE=Shanley Del - My Own Sweet Home
DYEAR=1997
DGENRE=Country Rock
TTITLE0=You Want To See Angels
TTITLE1=Walls
TTITLE2=Shame On The Moon
TTITLE3=Your Love (Is Still On My Mind)
TTITLE4=Keep Me Rocking
TTITLE5=Old Friends
TTITLE6=Wild Blossoms
TTITLE7=You're The Reason (I Don't Sleep At Night)
TTITLE8=Two Days From Knowing
TTITLE9=Do I Love You
TTITLE10=Still Small Voice
TTITLE11=You Can't Make Everything Okay
TTITLE12=Your Own Sweet Time [with Jason Sellers]
TTITLE13=Freeway Home
EXTD=
EXTT0=
EXTT1=
EXTT2=
EXTT3=
EXTT4=
EXTT5=
EXTT6=
EXTT7=
EXTT8=
EXTT9=
EXTT10=
EXTT11=
EXTT12=
EXTT13=
PLAYORDER=
